<!--<svg width="210" height="210" viewBox="0 0 210 210" fill="none" xmlns="http://www.w3.org/2000/svg">-->
<!--<circle cx="105" cy="105" r="105" fill="#19AB7B"/>-->
<!--<path d="M105.536 136.199C122.923 136.199 137.007 122.116 137.007 104.728C137.007 87.3413 122.923 73.258 105.536 73.258V136.199Z" fill="white"/>-->
<!--<path d="M131.914 54.0934L128.632 52.5136L121.137 68.0857L124.42 69.6655L131.914 54.0934Z" fill="white"/>-->
<!--<path d="M151.226 70.5263L148.953 67.6796L135.448 78.4614L137.721 81.3081L151.226 70.5263Z" fill="white"/>-->
<!--<path d="M144.694 97.5915L143.868 94.0336L160.705 90.1792L161.531 93.7371L144.694 97.5915Z" fill="white"/>-->
<!--<path d="M161.538 115.542L144.688 111.713L143.88 115.265L160.731 119.094L161.538 115.542Z" fill="white"/>-->
<!--<path d="M151.311 138.752L137.787 127.994L135.519 130.845L149.043 141.602L151.311 138.752Z" fill="white"/>-->
<!--<path d="M131.991 155.223L124.47 139.665L121.191 141.25L128.712 156.809L131.991 155.223Z" fill="white"/>-->
<!--<path d="M105.536 161.803C74.0657 161.803 48.4615 136.199 48.4615 104.728C48.4615 73.258 74.0657 47.6538 105.536 47.6538V51.2541C76.0564 51.2541 52.0618 75.2487 52.0618 104.728C52.0618 134.208 76.0564 158.203 105.536 158.203V161.803Z" fill="white"/>-->
<!--<path d="M105.536 136.199L105.536 132.895L101.068 135.881C102.529 136.093 104.011 136.199 105.536 136.199Z" fill="white"/>-->
<!--<path d="M94.7354 134.293L105.536 127.071V121.565L89.8857 132.027C91.4317 132.916 93.0412 133.679 94.7354 134.293Z" fill="white"/>-->
<!--<path d="M85.6077 129.083L105.536 115.762V110.256L82.2192 125.843C83.2569 127.008 84.4005 128.088 85.6077 129.083Z" fill="white"/>-->
<!--<path d="M79.2543 122.031L105.536 104.453V98.9469L77.0094 118.007C77.666 119.405 78.4072 120.739 79.2543 122.031Z" fill="white"/>-->
<!--<path d="M75.2728 113.369L105.536 93.1441V87.6378L74.2987 108.519C74.4893 110.171 74.8281 111.781 75.2728 113.369Z" fill="white"/>-->
<!--<path d="M74.1292 102.801L105.536 81.8139V76.3076L75.1246 96.6385C74.5951 98.6292 74.2563 100.683 74.1292 102.801Z" fill="white"/>-->
<!--<path d="M78.5343 88.5485L100.919 73.5968C91.4105 74.9946 83.2993 80.6491 78.5343 88.5485Z" fill="white"/>-->
<!--<path d="M105.536 136.199C122.923 136.199 137.007 122.116 137.007 104.728C137.007 87.3413 122.923 73.258 105.536 73.258V136.199ZM105.536 136.199L105.536 132.895L101.068 135.881C102.529 136.093 104.011 136.199 105.536 136.199ZM128.632 52.5136L131.914 54.0934L124.42 69.6655L121.137 68.0857L128.632 52.5136ZM148.953 67.6796L151.226 70.5263L137.721 81.3081L135.448 78.4614L148.953 67.6796ZM144.694 97.5915L143.868 94.0336L160.705 90.1792L161.531 93.7371L144.694 97.5915ZM144.688 111.713L161.538 115.542L160.731 119.094L143.88 115.265L144.688 111.713ZM137.787 127.994L151.311 138.752L149.043 141.602L135.519 130.845L137.787 127.994ZM124.47 139.665L131.991 155.223L128.712 156.809L121.191 141.25L124.47 139.665ZM105.536 161.803C74.0657 161.803 48.4615 136.199 48.4615 104.728C48.4615 73.258 74.0657 47.6538 105.536 47.6538V51.2541C76.0564 51.2541 52.0618 75.2487 52.0618 104.728C52.0618 134.208 76.0564 158.203 105.536 158.203V161.803ZM94.7354 134.293L105.536 127.071V121.565L89.8857 132.027C91.4317 132.916 93.0412 133.679 94.7354 134.293ZM85.6077 129.083L105.536 115.762V110.256L82.2192 125.843C83.2569 127.008 84.4005 128.088 85.6077 129.083ZM79.2543 122.031L105.536 104.453V98.9469L77.0094 118.007C77.666 119.405 78.4072 120.739 79.2543 122.031ZM75.2728 113.369L105.536 93.1441V87.6378L74.2987 108.519C74.4893 110.171 74.8281 111.781 75.2728 113.369ZM74.1292 102.801L105.536 81.8139V76.3076L75.1246 96.6385C74.5951 98.6292 74.2563 100.683 74.1292 102.801ZM78.5343 88.5485L100.919 73.5968C91.4105 74.9946 83.2993 80.6491 78.5343 88.5485Z" stroke="white" stroke-width="1.5"/>-->
<!--</svg>-->
<svg width="210" height="210" viewBox="0 0 210 210" fill="none" xmlns="http://www.w3.org/2000/svg">
    <circle cx="105" cy="105" r="105" fill="#6200EE"/>
    <path d="M105.536 136.199C122.923 136.199 137.007 122.116 137.007 104.728C137.007 87.3413 122.923 73.258 105.536 73.258V136.199Z" fill="white"/>
    <path d="M131.914 54.0934L128.632 52.5136L121.137 68.0857L124.42 69.6655L131.914 54.0934Z" fill="white"/>
    <path d="M151.226 70.5263L148.953 67.6796L135.448 78.4614L137.721 81.3081L151.226 70.5263Z" fill="white"/>
    <path d="M144.694 97.5915L143.868 94.0336L160.705 90.1792L161.531 93.7371L144.694 97.5915Z" fill="white"/>
    <path d="M161.538 115.542L144.688 111.713L143.88 115.265L160.731 119.094L161.538 115.542Z" fill="white"/>
    <path d="M151.311 138.752L137.787 127.994L135.519 130.845L149.043 141.602L151.311 138.752Z" fill="white"/>
    <path d="M131.991 155.223L124.47 139.665L121.191 141.25L128.712 156.809L131.991 155.223Z" fill="white"/>
    <path d="M105.536 161.803C74.0657 161.803 48.4615 136.199 48.4615 104.728C48.4615 73.258 74.0657 47.6538 105.536 47.6538V51.2541C76.0564 51.2541 52.0618 75.2487 52.0618 104.728C52.0618 134.208 76.0564 158.203 105.536 158.203V161.803Z" fill="white"/>
    <path d="M105.536 136.199L105.536 132.895L101.068 135.881C102.529 136.093 104.011 136.199 105.536 136.199Z" fill="white"/>
    <path d="M94.7354 134.293L105.536 127.071V121.565L89.8857 132.027C91.4317 132.916 93.0412 133.679 94.7354 134.293Z" fill="white"/>
    <path d="M85.6077 129.083L105.536 115.762V110.256L82.2192 125.843C83.2569 127.008 84.4005 128.088 85.6077 129.083Z" fill="white"/>
    <path d="M79.2543 122.031L105.536 104.453V98.9469L77.0094 118.007C77.666 119.405 78.4072 120.739 79.2543 122.031Z" fill="white"/>
    <path d="M75.2728 113.369L105.536 93.1441V87.6378L74.2987 108.519C74.4893 110.171 74.8281 111.781 75.2728 113.369Z" fill="white"/>
    <path d="M74.1292 102.801L105.536 81.8139V76.3076L75.1246 96.6385C74.5951 98.6292 74.2563 100.683 74.1292 102.801Z" fill="white"/>
    <path d="M78.5343 88.5485L100.919 73.5968C91.4105 74.9946 83.2993 80.6491 78.5343 88.5485Z" fill="white"/>
</svg>
