<svg width="402" height="642" viewBox="0 0 402 642" fill="none" xmlns="http://www.w3.org/2000/svg">
<g opacity="0.05" clip-path="url(#clip0_14_72)">
<g opacity="0.64">
<path d="M256.142 329.176L228.874 360.762C228.642 360.963 228.41 361.164 228.209 360.932L187.186 353.235C186.969 353.22 186.768 352.988 186.567 352.756L172.812 313.473C172.61 313.241 172.858 312.823 172.873 312.607L200.141 281.022C200.373 280.82 200.605 280.619 200.806 280.851L241.83 288.548C242.046 288.564 242.247 288.796 242.449 289.027L256.204 328.31C256.173 328.743 256.158 328.96 256.142 329.176ZM201.116 282.614L174.559 313.379L187.943 351.765L227.884 359.386L254.456 328.404L241.072 290.018L201.116 282.614Z" fill="url(#paint0_radial_14_72)"/>
<path d="M259.203 325.911L233.36 361.951C233.128 362.152 232.896 362.353 232.68 362.338L188.596 357.906C188.379 357.89 188.178 357.658 187.977 357.427L169.735 316.955C169.534 316.723 169.565 316.29 169.797 316.089L195.64 280.049C195.872 279.848 196.104 279.647 196.32 279.662L240.404 284.094C240.621 284.11 240.822 284.341 241.023 284.573L259.265 325.045C259.466 325.277 259.45 325.493 259.203 325.911C259.203 325.911 259.219 325.694 259.203 325.911ZM196.63 281.426L171.282 316.63L189.152 356.204L232.37 360.574L257.718 325.37L239.848 285.796L196.63 281.426Z" fill="url(#paint1_radial_14_72)"/>
<path d="M237.429 362.892L190.237 362.375C190.021 362.36 189.603 362.113 189.619 361.896L166.628 320.87C166.427 320.638 166.443 320.422 166.69 320.004L190.891 279.495C191.123 279.294 191.355 279.093 191.571 279.108L238.763 279.625C238.979 279.64 239.397 279.887 239.381 280.104L262.356 321.346C262.557 321.578 262.542 321.795 262.295 322.212L238.094 362.721C238.094 362.721 237.862 362.923 237.429 362.892ZM238.222 281.11L191.897 280.655L168.175 320.545L190.778 360.89L237.103 361.345L260.825 321.455L238.222 281.11Z" fill="url(#paint2_radial_14_72)"/>
<path d="M242.842 363.276L192.73 367.123C192.514 367.107 192.081 367.077 192.096 366.86L163.909 325.466C163.707 325.234 163.723 325.017 163.753 324.584L185.462 279.328C185.477 279.111 185.926 278.925 186.142 278.941L236.254 275.094C236.471 275.109 236.904 275.14 236.889 275.356L265.076 316.751C265.277 316.983 265.262 317.199 265.231 317.632L243.523 362.889C243.291 363.09 243.059 363.291 242.842 363.276ZM235.93 276.594L186.916 280.301L165.486 324.707L193.286 365.421L242.3 361.714L263.731 317.308L235.93 276.594Z" fill="url(#paint3_radial_14_72)"/>
<path d="M248.302 363.01L195.671 371.684C195.455 371.669 195.022 371.638 195.037 371.422L161.189 330.061C160.987 329.83 161.003 329.613 161.033 329.18L180.033 279.16C180.048 278.944 180.28 278.743 180.713 278.773L233.344 270.099C233.561 270.114 233.994 270.145 233.978 270.362L267.827 311.722C268.028 311.954 268.012 312.17 267.982 312.604L248.983 362.623C248.983 362.623 248.983 362.623 248.967 362.839C248.751 362.824 248.519 363.025 248.302 363.01ZM233.005 271.816L181.255 280.335L162.751 329.519L195.995 370.184L247.745 361.665L266.249 312.481L233.005 271.816Z" fill="url(#paint4_radial_14_72)"/>
<path d="M254.226 362.342L199.262 376.292C199.045 376.277 198.612 376.246 198.411 376.014L158.856 335.337C158.655 335.105 158.67 334.889 158.685 334.672L174.094 280.045C174.109 279.829 174.341 279.627 174.573 279.426L229.537 265.476C229.753 265.491 230.186 265.522 230.388 265.754L269.943 306.431C270.144 306.663 270.129 306.879 270.113 307.096L254.705 361.723L254.69 361.939C254.674 362.156 254.442 362.357 254.226 362.342ZM229.63 267.224L175.548 281.019L160.418 334.795L199.37 374.776L253.452 360.981L268.582 307.205L229.63 267.224Z" fill="url(#paint5_radial_14_72)"/>
<path d="M260.397 361.256L203.487 381.163C203.255 381.364 202.838 381.116 202.621 381.101L156.879 341.727C156.678 341.495 156.477 341.263 156.709 341.062L167.892 281.564C167.907 281.348 168.139 281.147 168.371 280.945L225.281 261.039C225.513 260.837 225.931 261.085 226.147 261.1L271.889 300.474C272.09 300.706 272.291 300.938 272.059 301.139L260.876 360.637L260.861 360.853C260.845 361.07 260.629 361.055 260.397 361.256ZM225.606 262.585L169.578 282.337L158.472 340.752L203.595 379.647L259.623 359.895L270.729 301.48L225.606 262.585Z" fill="url(#paint6_radial_14_72)"/>
<path d="M266.846 359.319L208.377 385.862C208.145 386.064 207.712 386.033 207.511 385.801L155.32 348.364C155.119 348.132 154.918 347.9 154.933 347.683L161.428 283.718C161.443 283.501 161.675 283.3 161.907 283.099L220.375 256.555C220.607 256.354 221.04 256.385 221.242 256.617L273.432 294.054C273.633 294.286 273.835 294.518 273.819 294.734L267.325 358.7C267.31 358.916 267.31 358.916 267.294 359.133C267.294 359.133 267.078 359.118 266.846 359.319ZM220.716 257.885L162.928 284.042L156.712 347.156L208.067 384.099L265.855 357.943L272.072 294.828L220.716 257.885Z" fill="url(#paint7_radial_14_72)"/>
<path d="M273.573 356.531L213.963 389.959C213.731 390.16 213.515 390.144 213.097 389.897L154.411 355.047C154.21 354.815 154.009 354.583 154.024 354.366L154.948 286.088C154.964 285.871 155.211 285.454 155.427 285.469L215.037 252.041C215.269 251.84 215.485 251.856 215.903 252.103L274.589 286.953C274.79 287.185 274.991 287.417 274.976 287.634L274.036 356.129C274.021 356.345 274.021 356.345 274.006 356.562C273.789 356.546 273.789 356.546 273.573 356.531ZM215.362 253.588L156.65 286.644L155.787 354.056L213.622 388.628L272.335 355.573L273.197 288.161L215.362 253.588Z" fill="url(#paint8_radial_14_72)"/>
<path d="M280.33 353.31L220.4 394.333C220.168 394.534 219.951 394.519 219.518 394.488L154.075 362.858C153.858 362.843 153.673 362.394 153.688 362.178L148.175 289.525C148.191 289.309 148.221 288.876 148.438 288.891L208.368 247.868C208.6 247.667 208.817 247.682 209.25 247.713L274.91 279.358C275.126 279.374 275.312 279.822 275.297 280.039L280.809 352.691C280.794 352.908 280.794 352.908 280.779 353.124C280.562 353.109 280.562 353.109 280.33 353.31ZM209.142 249.229L149.908 289.648L155.265 361.419L219.873 392.554L279.108 352.135L273.75 280.364L209.142 249.229Z" fill="url(#paint9_radial_14_72)"/>
<path d="M287.381 349.022L227.532 398.103C227.3 398.305 227.084 398.289 226.651 398.258L154.373 370.933C154.157 370.917 153.955 370.685 153.986 370.252L141.557 293.845C141.573 293.628 141.604 293.195 141.82 293.21L201.669 244.128C201.901 243.927 202.117 243.943 202.551 243.973L274.828 271.299C275.045 271.315 275.246 271.546 275.215 271.98L287.644 348.387C287.628 348.604 287.613 348.82 287.613 348.82C287.397 348.805 287.381 349.022 287.381 349.022ZM202.227 245.474L143.073 293.952L155.347 369.478L226.773 396.526L285.927 348.048L273.653 272.522L202.227 245.474Z" fill="url(#paint10_radial_14_72)"/>
<path d="M294.277 343.852L235.36 401.27C235.128 401.471 234.912 401.456 234.695 401.441L155.537 379.068C155.321 379.053 155.12 378.821 154.918 378.589L134.677 298.798C134.692 298.582 134.723 298.148 134.955 297.947L193.872 240.528C194.104 240.327 194.32 240.343 194.537 240.358L273.695 262.73C273.911 262.746 274.112 262.978 274.314 263.209L294.555 343.001C294.524 343.434 294.509 343.65 294.277 343.852ZM194.414 242.09L136.193 298.906L156.279 377.815L234.586 399.909L292.807 343.094L272.721 264.185L194.414 242.09Z" fill="url(#paint11_radial_14_72)"/>
<path d="M301.018 337.8L244.07 404.282C243.838 404.483 243.606 404.684 243.405 404.452L157.506 388.132C157.29 388.117 157.089 387.885 156.887 387.653L127.936 304.85C127.735 304.618 127.982 304.2 127.998 303.984L184.945 237.501C185.177 237.3 185.409 237.099 185.61 237.331L271.509 253.651C271.726 253.667 271.927 253.899 272.128 254.131L301.079 336.933C301.265 337.382 301.249 337.599 301.018 337.8C301.234 337.815 301.018 337.8 301.018 337.8ZM185.921 239.094L129.468 304.741L158.047 386.647L243.079 402.906L299.532 337.259L270.953 255.353L185.921 239.094Z" fill="url(#paint12_radial_14_72)"/>
<path d="M307.82 330.882L253.491 406.474C253.259 406.675 253.027 406.876 252.81 406.861L160.11 397.458C159.893 397.443 159.692 397.211 159.491 396.979L121.119 311.984C120.918 311.752 120.948 311.319 121.18 311.118L175.509 235.526C175.741 235.325 175.973 235.124 176.19 235.139L268.89 244.542C269.107 244.557 269.308 244.789 269.509 245.021L307.881 330.016C307.866 330.232 307.85 330.449 307.82 330.882C307.82 330.882 307.835 330.665 307.82 330.882ZM176.5 236.902L122.65 311.875L160.65 395.973L252.485 405.314L306.335 330.341L268.334 246.244L176.5 236.902Z" fill="url(#paint13_radial_14_72)"/>
<path d="M262.942 408.232L163.796 406.861C163.579 406.846 163.161 406.598 163.177 406.382L114.688 319.799C114.487 319.567 114.503 319.351 114.75 318.933L165.192 233.706C165.423 233.505 165.655 233.304 165.872 233.319L265.018 234.691C265.235 234.706 265.653 234.953 265.637 235.17L314.126 321.752C314.327 321.984 314.311 322.201 314.064 322.618L263.622 407.845C263.607 408.062 263.375 408.263 262.942 408.232ZM264.664 236.624L166.6 235.33L116.436 319.706L164.553 405.391L262.617 406.685L312.78 322.31L264.664 236.624Z" fill="url(#paint14_radial_14_72)"/>
<path d="M273.986 409.015L168.967 416.804C168.75 416.789 168.317 416.758 168.333 416.542L109.001 329.408C108.8 329.176 108.816 328.96 108.846 328.527L154.535 233.604C154.55 233.387 154.998 233.201 155.215 233.217L260.234 225.427C260.451 225.443 260.884 225.474 260.869 225.69L320.2 312.824C320.401 313.056 320.386 313.272 320.355 313.705L274.667 408.628C274.435 408.829 274.203 409.031 273.986 409.015ZM259.694 226.913L155.556 234.547L110.362 328.634L169.306 415.087L273.444 407.453L318.638 313.366L259.694 226.913Z" fill="url(#paint15_radial_14_72)"/>
<path d="M285.757 408.762L175.004 426.809C174.788 426.794 174.355 426.763 174.37 426.547L103.268 339.667C103.067 339.435 103.082 339.218 103.113 338.785L142.764 233.857C142.779 233.641 143.011 233.44 143.444 233.47L254.197 215.423C254.413 215.438 254.847 215.469 254.831 215.685L325.933 302.565C326.134 302.797 326.119 303.014 326.088 303.447L286.437 408.374C286.437 408.374 286.437 408.374 286.422 408.591C286.205 408.576 285.989 408.56 285.757 408.762ZM253.656 216.908L144.002 234.816L104.846 338.908L175.344 425.092L284.998 407.184L324.154 303.092L253.656 216.908Z" fill="url(#paint16_radial_14_72)"/>
<path d="M298.053 407.239L182.372 436.473C182.155 436.458 181.722 436.427 181.521 436.195L98.1387 350.621C97.9375 350.389 97.9529 350.173 97.9682 349.956L130.267 235.148C130.282 234.931 130.514 234.73 130.746 234.529L246.427 205.295C246.644 205.31 247.077 205.341 247.278 205.573L330.66 291.147C330.861 291.379 330.846 291.595 330.831 291.812L298.532 406.62L298.516 406.837C298.501 407.053 298.269 407.255 298.053 407.239ZM246.521 207.043L131.721 236.122L99.7007 350.079L182.479 434.957L297.278 405.878L329.299 291.921L246.521 207.043Z" fill="url(#paint17_radial_14_72)"/>
<path d="M311.075 404.68L191.24 446.461C191.008 446.662 190.59 446.415 190.373 446.4L94.1703 363.617C93.9691 363.385 93.7679 363.153 93.9998 362.952L117.415 238.372C117.431 238.155 117.663 237.954 117.894 237.753L237.73 195.972C237.962 195.771 238.379 196.018 238.596 196.033L334.799 278.816C335 279.048 335.201 279.28 334.969 279.481L311.554 404.061L311.539 404.278C311.307 404.479 311.307 404.479 311.075 404.68ZM237.854 197.287L118.916 238.696L95.5618 362.409L191.146 444.713L310.084 403.304L333.438 279.591L237.854 197.287Z" fill="url(#paint18_radial_14_72)"/>
<path d="M324.638 400.636L201.438 456.108C201.206 456.309 200.773 456.279 200.571 456.047L90.8208 377.091C90.6196 376.859 90.4184 376.628 90.4337 376.411L103.868 242.2C103.883 241.983 104.115 241.782 104.347 241.581L227.33 186.093C227.562 185.892 227.995 185.922 228.197 186.154L337.947 265.11C338.148 265.342 338.35 265.574 338.334 265.79L324.9 400.001C324.885 400.218 324.885 400.218 324.869 400.434L324.638 400.636ZM227.656 187.64L105.585 242.539L92.4288 375.899L201.344 454.36L323.647 399.26L336.803 265.899L227.656 187.64Z" fill="url(#paint19_radial_14_72)"/>
<path d="M338.524 395.091L213.197 465.213C212.966 465.414 212.749 465.399 212.331 465.151L88.6938 391.741C88.4926 391.509 88.2914 391.277 88.3068 391.061L89.9964 247.528C90.0117 247.312 90.259 246.894 90.4755 246.909L215.803 176.787C216.034 176.586 216.251 176.601 216.669 176.848L340.306 250.259C340.507 250.491 340.709 250.723 340.693 250.939L339.004 394.472C338.988 394.688 338.988 394.688 338.973 394.905C338.756 394.89 338.524 395.091 338.524 395.091ZM216.128 178.334L91.6981 248.084L90.0699 390.75L212.872 463.666L337.302 393.916L338.93 251.249L216.128 178.334Z" fill="url(#paint20_radial_14_72)"/>
<path d="M352.735 388.045L226.504 473.992C226.272 474.193 226.055 474.178 225.622 474.147L87.774 407.782C87.5575 407.767 87.3716 407.319 87.387 407.102L75.7701 254.79C75.7855 254.574 75.8162 254.141 76.0327 254.156L202.264 168.209C202.496 168.008 202.713 168.023 203.146 168.054L340.994 234.419C341.211 234.434 341.396 234.883 341.381 235.099L352.998 387.411C352.983 387.627 352.983 387.627 352.967 387.844L352.735 388.045ZM203.038 169.57L77.5025 254.913L88.9643 406.343L225.962 472.43L351.497 387.087L340.036 235.657L203.038 169.57Z" fill="url(#paint21_radial_14_72)"/>
<path d="M367.286 379.282L241.388 482.012C241.156 482.214 240.939 482.198 240.506 482.167L88.324 424.581C88.1074 424.565 87.9062 424.334 87.937 423.9L61.6529 263.584C61.6683 263.367 61.699 262.934 61.9155 262.949L187.612 159.988C187.844 159.786 188.061 159.802 188.494 159.832L340.676 217.419C340.892 217.434 341.094 217.666 341.063 218.099L367.347 378.416C367.332 378.633 367.316 378.849 367.316 378.849C367.301 379.066 367.301 379.066 367.286 379.282ZM188.371 161.565L63.1688 263.691L89.2977 423.126L240.629 480.435L365.831 378.309L339.702 218.874L188.371 161.565Z" fill="url(#paint22_radial_14_72)"/>
<path d="M381.758 368.555L257.864 489.057C257.632 489.259 257.415 489.243 257.199 489.228L90.545 442.368C90.3284 442.353 90.1272 442.121 89.926 441.889L47.181 274.311C47.1963 274.094 47.227 273.661 47.4589 273.46L171.353 152.958C171.584 152.757 171.801 152.772 172.018 152.787L338.672 199.647C338.888 199.662 339.089 199.894 339.29 200.126L382.036 367.704C382.02 367.921 382.005 368.137 381.758 368.555C381.773 368.339 381.773 368.339 381.758 368.555ZM171.91 154.303L48.7122 274.202L91.3021 440.898L257.105 487.48L380.303 367.581L337.713 200.885L171.91 154.303Z" fill="url(#paint23_radial_14_72)"/>
<path d="M395.935 355.848L275.933 495.127C275.701 495.328 275.469 495.529 275.268 495.297L94.2204 461.13C94.0038 461.114 93.8026 460.882 93.6014 460.65L32.7874 287.003C32.5862 286.771 32.8334 286.353 32.8488 286.136L152.85 146.858C153.299 146.672 153.515 146.687 153.732 146.702L334.78 180.87C334.996 180.886 335.197 181.118 335.399 181.349L396.213 354.997C396.197 355.214 396.182 355.43 395.935 355.848C396.167 355.647 396.167 355.647 395.935 355.848ZM153.841 148.234L34.3186 286.894L94.9775 459.66L274.942 493.751L394.465 355.091L334.022 182.34L153.841 148.234Z" fill="url(#paint24_radial_14_72)"/>
<path d="M410.049 340.96L295.625 499.788C295.393 499.989 295.161 500.191 294.945 500.175L100.015 480.694C99.7986 480.679 99.5974 480.447 99.3963 480.215L18.8899 301.906C18.6887 301.674 18.7194 301.241 18.9513 301.04L133.375 142.212C133.607 142.011 133.838 141.809 134.055 141.825L328.985 161.306C329.201 161.321 329.402 161.553 329.604 161.785L410.11 340.094C410.311 340.326 410.281 340.759 410.049 340.96ZM134.365 143.588L20.653 301.596L100.788 479.008L294.851 498.427L408.563 340.42L328.429 163.008L134.365 143.588Z" fill="url(#paint25_radial_14_72)"/>
<path d="M423.651 324.077L317.173 502.84C316.941 503.041 316.709 503.242 316.493 503.227L108.177 500.644C107.96 500.629 107.542 500.382 107.558 500.165L5.51917 318.588C5.31798 318.356 5.33334 318.139 5.5806 317.722L112.059 138.959C112.291 138.758 112.523 138.557 112.739 138.572L321.055 141.154C321.272 141.17 321.689 141.417 321.674 141.634L423.713 323.211C423.697 323.427 423.667 323.86 423.651 324.077ZM113.05 140.335L7.05039 318.479L108.501 499.144L315.95 501.665L421.95 323.521L320.499 142.856L113.05 140.335Z" fill="url(#paint26_radial_14_72)"/>
<path d="M339.462 504.638L118.473 521.181C118.257 521.166 117.823 521.135 117.839 520.918L-6.96841 338.162C-7.1696 337.93 -7.15425 337.714 -7.12354 337.281L88.8573 137.749C88.8726 137.533 89.3211 137.347 89.5376 137.362L310.527 120.819C310.743 120.834 311.177 120.865 311.161 121.082L435.968 303.838C436.17 304.07 436.154 304.286 436.123 304.719L339.926 504.235C339.911 504.452 339.679 504.653 339.462 504.638ZM310.419 122.335L90.0798 138.924L-5.60768 337.388L118.581 519.665L338.704 503.06L434.623 304.395L310.419 122.335Z" fill="url(#paint27_radial_14_72)"/>
<path d="M363.885 503.975L131.136 542.103C130.92 542.088 130.486 542.057 130.502 541.84L-18.7126 359.53C-18.9138 359.298 -18.8985 359.082 -18.8678 358.649L64.4346 138.412C64.45 138.195 64.6819 137.994 65.115 138.025L297.864 99.8968C298.08 99.9121 298.513 99.9429 298.498 100.159L447.713 282.47C447.914 282.702 447.898 282.918 447.868 283.351L364.349 503.573C364.349 503.573 364.349 503.573 364.333 503.789C364.333 503.789 364.101 503.991 363.885 503.975ZM297.741 101.629L65.8737 139.602L-17.3673 358.973L131.244 540.587L363.111 502.614L446.352 283.244L297.741 101.629Z" fill="url(#paint28_radial_14_72)"/>
<path d="M389.776 501.023L146.63 563.008C146.413 562.993 145.98 562.962 145.779 562.73L-29.3265 383.373C-29.5277 383.141 -29.5123 382.924 -29.4969 382.708L38.745 141.596C38.7603 141.38 38.9923 141.178 39.2242 140.977L282.37 78.9916C282.587 79.0069 283.02 79.0376 283.221 79.2696L458.326 258.627C458.528 258.859 458.512 259.076 458.497 259.292L390.472 500.419L390.456 500.636C390.224 500.837 389.992 501.038 389.776 501.023ZM282.247 80.7241L39.9982 142.338L-27.7492 382.614L146.753 561.276L389.002 499.662L456.749 259.386L282.247 80.7241Z" fill="url(#paint29_radial_14_72)"/>
<path d="M416.934 495.548L164.969 583.68C164.737 583.881 164.32 583.634 164.103 583.619L-38.1756 409.952C-38.3768 409.72 -38.578 409.488 -38.3461 409.287L11.3552 147.272C11.3706 147.055 11.6025 146.854 11.8344 146.653L263.799 58.5211C264.031 58.3199 264.449 58.5671 264.665 58.5825L466.944 232.249C467.145 232.481 467.346 232.713 467.114 232.914L417.413 494.929L417.398 495.146C417.166 495.347 417.166 495.347 416.934 495.548ZM264.124 60.0678L13.0569 147.828L-36.5676 408.76L164.875 581.932L415.943 494.172L465.568 233.24L264.124 60.0678Z" fill="url(#paint30_radial_14_72)"/>
<path d="M445.173 487.103L186.386 603.917C186.154 604.118 185.721 604.088 185.52 603.856L-44.7656 438.433C-44.9668 438.201 -45.168 437.969 -45.1526 437.753L-16.652 155.516C-16.6366 155.299 -16.4047 155.098 -16.1728 154.897L242.614 38.0829C242.845 37.8817 243.279 37.9124 243.48 38.1443L473.765 203.567C473.967 203.799 474.168 204.031 474.153 204.247L445.652 486.484C445.637 486.701 445.637 486.701 445.621 486.917C445.405 486.902 445.389 487.118 445.173 487.103ZM242.939 39.6296L-15.1668 156.056L-43.606 437.427L186.061 602.37L444.167 485.943L472.606 204.573L242.939 39.6296Z" fill="url(#paint31_radial_14_72)"/>
<path d="M474.276 475.672L210.68 623.487C210.448 623.689 210.232 623.673 209.814 623.426L-49.3589 469.45C-49.5601 469.218 -49.7613 468.986 -49.746 468.769L-45.771 167.163C-45.7557 166.947 -45.5084 166.529 -45.2919 166.544L218.088 18.7138C218.32 18.5126 218.536 18.5279 218.954 18.7752L478.359 172.55C478.56 172.782 478.761 173.014 478.746 173.231L474.771 474.837C474.756 475.053 474.756 475.053 474.74 475.27C474.508 475.471 474.508 475.471 474.276 475.672ZM218.413 20.2604L-44.2705 167.487L-48.184 468.227L210.586 621.74L473.27 474.513L477.184 173.773L218.413 20.2604Z" fill="url(#paint32_radial_14_72)"/>
</g>
</g>
<defs>
<radialGradient id="paint0_radial_14_72" cx="0" cy="0" r="1" gradientUnits="userSpaceOnUse" gradientTransform="translate(211.518 281.622) rotate(89.1707) scale(76.7726 82.6849)">
<stop offset="0.232497"/>
<stop offset="1" stop-opacity="0"/>
</radialGradient>
<radialGradient id="paint1_radial_14_72" cx="0" cy="0" r="1" gradientUnits="userSpaceOnUse" gradientTransform="translate(211.225 280.823) rotate(88.9477) scale(78.5428 88.4139)">
<stop offset="0.232497"/>
<stop offset="1" stop-opacity="0"/>
</radialGradient>
<radialGradient id="paint2_radial_14_72" cx="0" cy="0" r="1" gradientUnits="userSpaceOnUse" gradientTransform="translate(211.058 277.772) rotate(89.0115) scale(84.5105 93.9558)">
<stop offset="0.232497"/>
<stop offset="1" stop-opacity="0"/>
</radialGradient>
<radialGradient id="paint3_radial_14_72" cx="0" cy="0" r="1" gradientUnits="userSpaceOnUse" gradientTransform="translate(211.034 273.429) rotate(89.2506) scale(93.2269 98.7795)">
<stop offset="0.232497"/>
<stop offset="1" stop-opacity="0"/>
</radialGradient>
<radialGradient id="paint4_radial_14_72" cx="0" cy="0" r="1" gradientUnits="userSpaceOnUse" gradientTransform="translate(211.048 268.653) rotate(89.4632) scale(102.156 103.495)">
<stop offset="0.232497"/>
<stop offset="1" stop-opacity="0"/>
</radialGradient>
<radialGradient id="paint5_radial_14_72" cx="0" cy="0" r="1" gradientUnits="userSpaceOnUse" gradientTransform="translate(210.997 264.308) rotate(89.6681) scale(110.655 107.145)">
<stop offset="0.232497"/>
<stop offset="1" stop-opacity="0"/>
</radialGradient>
<radialGradient id="paint6_radial_14_72" cx="0" cy="0" r="1" gradientUnits="userSpaceOnUse" gradientTransform="translate(211.078 260.093) rotate(89.8679) scale(119.342 110.332)">
<stop offset="0.232497"/>
<stop offset="1" stop-opacity="0"/>
</radialGradient>
<radialGradient id="paint7_radial_14_72" cx="0" cy="0" r="1" gradientUnits="userSpaceOnUse" gradientTransform="translate(211.209 255.911) rotate(90.0596) scale(127.755 112.74)">
<stop offset="0.232497"/>
<stop offset="1" stop-opacity="0"/>
</radialGradient>
<radialGradient id="paint8_radial_14_72" cx="0" cy="0" r="1" gradientUnits="userSpaceOnUse" gradientTransform="translate(211.007 251.772) rotate(89.994) scale(135.437 121.468)">
<stop offset="0.232497"/>
<stop offset="1" stop-opacity="0"/>
</radialGradient>
<radialGradient id="paint9_radial_14_72" cx="0" cy="0" r="1" gradientUnits="userSpaceOnUse" gradientTransform="translate(210.392 247.983) rotate(89.8046) scale(143.037 134.221)">
<stop offset="0.232497"/>
<stop offset="1" stop-opacity="0"/>
</radialGradient>
<radialGradient id="paint10_radial_14_72" cx="0" cy="0" r="1" gradientUnits="userSpaceOnUse" gradientTransform="translate(209.864 244.69) rotate(89.6062) scale(149.472 146.753)">
<stop offset="0.232497"/>
<stop offset="1" stop-opacity="0"/>
</radialGradient>
<radialGradient id="paint11_radial_14_72" cx="0" cy="0" r="1" gradientUnits="userSpaceOnUse" gradientTransform="translate(209.199 241.603) rotate(89.3927) scale(155.062 159.485)">
<stop offset="0.232497"/>
<stop offset="1" stop-opacity="0"/>
</radialGradient>
<radialGradient id="paint12_radial_14_72" cx="0" cy="0" r="1" gradientUnits="userSpaceOnUse" gradientTransform="translate(208.445 239.071) rotate(89.1843) scale(159.979 171.824)">
<stop offset="0.232497"/>
<stop offset="1" stop-opacity="0"/>
</radialGradient>
<radialGradient id="paint13_radial_14_72" cx="0" cy="0" r="1" gradientUnits="userSpaceOnUse" gradientTransform="translate(207.588 237.581) rotate(88.9351) scale(163.065 184.006)">
<stop offset="0.232497"/>
<stop offset="1" stop-opacity="0"/>
</radialGradient>
<radialGradient id="paint14_radial_14_72" cx="0" cy="0" r="1" gradientUnits="userSpaceOnUse" gradientTransform="translate(207.247 230.827) rotate(89.0124) scale(175.85 195.467)">
<stop offset="0.232497"/>
<stop offset="1" stop-opacity="0"/>
</radialGradient>
<radialGradient id="paint15_radial_14_72" cx="0" cy="0" r="1" gradientUnits="userSpaceOnUse" gradientTransform="translate(207.38 221.936) rotate(89.2415) scale(193.923 205.859)">
<stop offset="0.232497"/>
<stop offset="1" stop-opacity="0"/>
</radialGradient>
<radialGradient id="paint16_radial_14_72" cx="0" cy="0" r="1" gradientUnits="userSpaceOnUse" gradientTransform="translate(207.38 212.384) rotate(89.4567) scale(212.631 215.718)">
<stop offset="0.232497"/>
<stop offset="1" stop-opacity="0"/>
</radialGradient>
<radialGradient id="paint17_radial_14_72" cx="0" cy="0" r="1" gradientUnits="userSpaceOnUse" gradientTransform="translate(207.28 202.824) rotate(89.6623) scale(230.907 223.873)">
<stop offset="0.232497"/>
<stop offset="1" stop-opacity="0"/>
</radialGradient>
<radialGradient id="paint18_radial_14_72" cx="0" cy="0" r="1" gradientUnits="userSpaceOnUse" gradientTransform="translate(207.57 194.066) rotate(89.8617) scale(248.728 230.287)">
<stop offset="0.232497"/>
<stop offset="1" stop-opacity="0"/>
</radialGradient>
<radialGradient id="paint19_radial_14_72" cx="0" cy="0" r="1" gradientUnits="userSpaceOnUse" gradientTransform="translate(207.785 184.896) rotate(90.0612) scale(266.484 235.07)">
<stop offset="0.232497"/>
<stop offset="1" stop-opacity="0"/>
</radialGradient>
<radialGradient id="paint20_radial_14_72" cx="0" cy="0" r="1" gradientUnits="userSpaceOnUse" gradientTransform="translate(207.185 176.387) rotate(89.9895) scale(282.917 254.015)">
<stop offset="0.232497"/>
<stop offset="1" stop-opacity="0"/>
</radialGradient>
<radialGradient id="paint21_radial_14_72" cx="0" cy="0" r="1" gradientUnits="userSpaceOnUse" gradientTransform="translate(205.783 168.636) rotate(89.7934) scale(298.23 280.583)">
<stop offset="0.232497"/>
<stop offset="1" stop-opacity="0"/>
</radialGradient>
<radialGradient id="paint22_radial_14_72" cx="0" cy="0" r="1" gradientUnits="userSpaceOnUse" gradientTransform="translate(204.564 161.385) rotate(89.5968) scale(312.168 307.133)">
<stop offset="0.232497"/>
<stop offset="1" stop-opacity="0"/>
</radialGradient>
<radialGradient id="paint23_radial_14_72" cx="0" cy="0" r="1" gradientUnits="userSpaceOnUse" gradientTransform="translate(203.223 155.428) rotate(89.3776) scale(323.781 334.081)">
<stop offset="0.232497"/>
<stop offset="1" stop-opacity="0"/>
</radialGradient>
<radialGradient id="paint24_radial_14_72" cx="0" cy="0" r="1" gradientUnits="userSpaceOnUse" gradientTransform="translate(201.593 150.537) rotate(89.1541) scale(333.363 360.248)">
<stop offset="0.232497"/>
<stop offset="1" stop-opacity="0"/>
</radialGradient>
<radialGradient id="paint25_radial_14_72" cx="0" cy="0" r="1" gradientUnits="userSpaceOnUse" gradientTransform="translate(200.141 146.96) rotate(88.9145) scale(340.228 385.448)">
<stop offset="0.232497"/>
<stop offset="1" stop-opacity="0"/>
</radialGradient>
<radialGradient id="paint26_radial_14_72" cx="0" cy="0" r="1" gradientUnits="userSpaceOnUse" gradientTransform="translate(199.502 133.021) rotate(88.9984) scale(367.287 409.385)">
<stop offset="0.232497"/>
<stop offset="1" stop-opacity="0"/>
</radialGradient>
<radialGradient id="paint27_radial_14_72" cx="0" cy="0" r="1" gradientUnits="userSpaceOnUse" gradientTransform="translate(199.354 113.472) rotate(89.2353) scale(405.77 431.299)">
<stop offset="0.232497"/>
<stop offset="1" stop-opacity="0"/>
</radialGradient>
<radialGradient id="paint28_radial_14_72" cx="0" cy="0" r="1" gradientUnits="userSpaceOnUse" gradientTransform="translate(199.384 93.5022) rotate(89.4556) scale(444.883 451.453)">
<stop offset="0.232497"/>
<stop offset="1" stop-opacity="0"/>
</radialGradient>
<radialGradient id="paint29_radial_14_72" cx="0" cy="0" r="1" gradientUnits="userSpaceOnUse" gradientTransform="translate(199.575 73.7605) rotate(89.6603) scale(483.563 469.047)">
<stop offset="0.232497"/>
<stop offset="1" stop-opacity="0"/>
</radialGradient>
<radialGradient id="paint30_radial_14_72" cx="0" cy="0" r="1" gradientUnits="userSpaceOnUse" gradientTransform="translate(199.886 54.5823) rotate(89.8611) scale(521.353 482.77)">
<stop offset="0.232497"/>
<stop offset="1" stop-opacity="0"/>
</radialGradient>
<radialGradient id="paint31_radial_14_72" cx="0" cy="0" r="1" gradientUnits="userSpaceOnUse" gradientTransform="translate(200.683 35.6854) rotate(90.0621) scale(558.219 492.305)">
<stop offset="0.232497"/>
<stop offset="1" stop-opacity="0"/>
</radialGradient>
<radialGradient id="paint32_radial_14_72" cx="0" cy="0" r="1" gradientUnits="userSpaceOnUse" gradientTransform="translate(199.255 18) rotate(90) scale(593 531.052)">
<stop offset="0.232497"/>
<stop offset="1" stop-opacity="0"/>
</radialGradient>
<clipPath id="clip0_14_72">
<rect width="541" height="604" fill="white" transform="translate(-33.9622 0.623901) rotate(4.05591)"/>
</clipPath>
</defs>
</svg>
